<svg width="37" height="37" viewBox="0 0 37 37" fill="none" xmlns="http://www.w3.org/2000/svg">
<g clip-path="url(#clip0_187_391)">
<path d="M18.5007 0.770647C13.9016 0.671398 9.45128 2.40163 6.12707 5.58131C2.80286 8.76099 0.876632 13.1301 0.771484 17.729C0.783147 20.1928 1.34249 22.6232 2.40903 24.8443C3.47556 27.0653 5.0226 29.0215 6.93815 30.5711L5.39648 36.229L11.5632 33.3306C13.766 34.2279 16.1221 34.6887 18.5007 34.6873C23.0997 34.7866 27.55 33.0563 30.8742 29.8766C34.1984 26.697 36.1247 22.3279 36.2298 17.729C36.1247 13.1301 34.1984 8.76099 30.8742 5.58131C27.55 2.40163 23.0997 0.671398 18.5007 0.770647V0.770647Z" stroke="white" stroke-width="2" stroke-linecap="round" stroke-linejoin="round"/>
<path d="M6.9375 22.354L16.1875 13.104L21.5833 17.729L30.0625 13.104L20.8125 22.354L15.4167 17.729L6.9375 22.354Z" stroke="white" stroke-width="2" stroke-linecap="round" stroke-linejoin="round"/>
</g>
<defs>
<clipPath id="clip0_187_391">
<rect width="37" height="37" fill="white"/>
</clipPath>
</defs>
</svg>
