<svg width="97" height="97" viewBox="0 0 97 97" fill="none" xmlns="http://www.w3.org/2000/svg">
<path d="M90.1797 65.1724V74.2661C90.1797 75.5256 89.1657 76.5396 87.9062 76.5396H78.8125C77.553 76.5396 76.5391 75.5256 76.5391 74.2661V65.1724V69.6719V59.8677H78.0547H88.6641H90.1797V69.6719V65.1724Z" fill="#D2DBB4"/>
<path d="M3.78906 67.4458C3.78906 70.7409 6.28817 73.3949 9.39125 73.3949H66.3902C69.4933 73.3949 71.9924 70.7409 71.9924 67.4458H43.1874C43.1874 68.5602 42.3424 69.4576 41.2928 69.4576H34.4761C33.4265 69.4576 32.5815 68.5602 32.5815 67.4458H3.78906Z" fill="#B3BD8B"/>
<path d="M9.85156 67.4458V64.4146V31.0708C9.85156 29.3915 11.2035 28.0396 12.8828 28.0396H62.8984C64.5778 28.0396 65.9373 29.3915 65.9297 31.0708V64.4146V67.4458H43.3374L42.0823 69.4587L37.8906 69.53L33.9624 69.5542L32.5386 67.4465L9.85156 67.4458Z" fill="#F4F7F8"/>
<path d="M61.3828 32.5861H14.3984V62.8987H61.3828V32.5861Z" fill="#FFD895"/>
<path d="M61.3828 32.5864V62.8989H14.3984L61.3828 32.5864Z" fill="#D2DBB4"/>
<path d="M9.85156 67.4458V64.4146V31.0708C9.85156 29.3915 11.2035 28.0396 12.8828 28.0396H62.8984C64.5778 28.0396 65.9373 29.3915 65.9297 31.0708V64.4146V67.4458" stroke="#8B9A6C"/>
<path d="M3.78906 67.4458C3.78906 70.7409 6.28817 73.3949 9.39125 73.3949H66.3902C69.4933 73.3949 71.9924 70.7409 71.9924 67.4458H43.1874C43.1874 68.5602 42.3424 69.4576 41.2928 69.4576H34.4761C33.4265 69.4576 32.5815 68.5602 32.5815 67.4458H3.78906Z" stroke="#8B9A6C" stroke-linecap="round" stroke-linejoin="round"/>
<path d="M61.3828 32.5861H14.3984V62.8987H61.3828V32.5861Z" stroke="#8B9A6C" stroke-linecap="round" stroke-linejoin="round"/>
<path d="M90.5586 62.8989H92.4531C93.7126 62.8989 94.7266 63.9129 94.7266 65.1724V69.7192C94.7266 70.9787 93.7126 71.9927 92.4531 71.9927H90.5586" stroke="#8B9A6C" stroke-linecap="round" stroke-linejoin="round"/>
<path fill-rule="evenodd" clip-rule="evenodd" d="M81.1095 56.0826C80.0847 56.0675 80.0847 57.6128 81.1095 57.5983H85.6445C86.6693 57.6134 86.6693 56.0681 85.6445 56.0826H81.1095ZM79.5928 53.0514C78.568 53.0362 78.568 54.5816 79.5928 54.567H90.1916C91.2164 54.5822 91.2164 53.0368 90.1916 53.0514H79.5928Z" fill="#8B9A6C"/>
<path fill-rule="evenodd" clip-rule="evenodd" d="M82.6645 54.5685C82.8611 54.5775 83.0466 54.6627 83.1815 54.806C83.3165 54.9493 83.3905 55.1394 83.3878 55.3363C83.3851 55.5331 83.306 55.7212 83.1671 55.8608C83.0283 56.0003 82.8406 56.0804 82.6438 56.0841H85.6661C85.5666 56.0876 85.4674 56.0714 85.3741 56.0366C85.2808 56.0017 85.1953 55.9489 85.1225 55.881C84.9754 55.7438 84.8888 55.5539 84.8817 55.3529C84.8746 55.1519 84.9477 54.9563 85.0848 54.8092C85.2219 54.6621 85.4119 54.5755 85.6129 54.5685H82.6645H82.6645ZM76.5713 50.0214C75.5465 50.0063 75.5465 51.5516 76.5713 51.537H78.087C79.1118 51.5522 79.1118 50.0069 78.087 50.0214H76.5713ZM81.1182 50.0202C81.0178 50.0188 80.9181 50.0373 80.8249 50.0748C80.7317 50.1122 80.6469 50.1678 80.5754 50.2383C80.5039 50.3089 80.4471 50.3929 80.4083 50.4855C80.3696 50.5782 80.3496 50.6776 80.3496 50.778C80.3496 50.8785 80.3696 50.9779 80.4083 51.0705C80.4471 51.1632 80.5039 51.2472 80.5754 51.3177C80.6469 51.3882 80.7317 51.4438 80.8249 51.4813C80.9181 51.5187 81.0178 51.5373 81.1182 51.5358H88.6963C88.7968 51.5373 88.8965 51.5187 88.9896 51.4813C89.0828 51.4438 89.1676 51.3882 89.2392 51.3177C89.3107 51.2472 89.3675 51.1632 89.4062 51.0705C89.445 50.9779 89.4649 50.8785 89.4649 50.778C89.4649 50.6776 89.445 50.5782 89.4062 50.4855C89.3675 50.3929 89.3107 50.3089 89.2392 50.2383C89.1676 50.1678 89.0828 50.1122 88.9896 50.0748C88.8965 50.0373 88.7968 50.0188 88.6963 50.0202H81.1182Z" fill="#8B9A6C"/>
<path fill-rule="evenodd" clip-rule="evenodd" d="M84.128 50.0202C84.0276 50.0188 83.9279 50.0373 83.8347 50.0748C83.7415 50.1122 83.6567 50.1678 83.5852 50.2383C83.5136 50.3089 83.4569 50.3929 83.4181 50.4855C83.3793 50.5782 83.3594 50.6776 83.3594 50.778C83.3594 50.8785 83.3793 50.9779 83.4181 51.0705C83.4569 51.1632 83.5136 51.2472 83.5852 51.3177C83.6567 51.3882 83.7415 51.4438 83.8347 51.4813C83.9279 51.5187 84.0276 51.5373 84.128 51.5358H91.7061C91.8065 51.5373 91.9062 51.5187 91.9994 51.4813C92.0926 51.4438 92.1774 51.3882 92.2489 51.3177C92.3204 51.2472 92.3772 51.1632 92.416 51.0705C92.4547 50.9779 92.4747 50.8785 92.4747 50.778C92.4747 50.6776 92.4547 50.5782 92.416 50.4855C92.3772 50.3929 92.3204 50.3089 92.2489 50.2383C92.1774 50.1678 92.0926 50.1122 91.9994 50.0748C91.9062 50.0373 91.8065 50.0188 91.7061 50.0202H84.128Z" fill="#8B9A6C"/>
<path fill-rule="evenodd" clip-rule="evenodd" d="M81.886 51.5371C82.0826 51.5462 82.268 51.6314 82.403 51.7747C82.538 51.918 82.6119 52.1082 82.6093 52.305C82.6066 52.5018 82.5274 52.69 82.3886 52.8295C82.2497 52.9691 82.0621 53.0491 81.8652 53.0528H84.8876C84.7881 53.0563 84.6889 53.0401 84.5956 53.0053C84.5023 52.9704 84.4168 52.9176 84.3439 52.8497C84.2711 52.7818 84.2123 52.7001 84.171 52.6095C84.1297 52.5189 84.1066 52.4211 84.1031 52.3216C84.0996 52.222 84.1158 52.1228 84.1506 52.0295C84.1855 51.9362 84.2384 51.8507 84.3063 51.7779C84.3742 51.7051 84.4557 51.6463 84.5463 51.605C84.637 51.5637 84.7348 51.5406 84.8343 51.5371H81.886ZM86.4417 51.5371C86.6384 51.5462 86.8238 51.6314 86.9588 51.7747C87.0938 51.918 87.1677 52.1082 87.165 52.305C87.1623 52.5018 87.0832 52.69 86.9443 52.8295C86.8055 52.9691 86.6178 53.0491 86.421 53.0528H89.4434C89.3439 53.0563 89.2446 53.0401 89.1513 53.0053C89.0581 52.9704 88.9726 52.9176 88.8997 52.8497C88.8269 52.7818 88.7681 52.7001 88.7268 52.6095C88.6855 52.5189 88.6624 52.4211 88.6589 52.3216C88.6554 52.222 88.6716 52.1228 88.7064 52.0295C88.7413 51.9362 88.7941 51.8507 88.862 51.7779C88.9299 51.7051 89.0115 51.6463 89.1021 51.605C89.1927 51.5637 89.2906 51.5406 89.3901 51.5371H86.4417H86.4417ZM88.675 56.0839C87.6501 56.0687 87.6501 57.6141 88.675 57.5995H88.6748C89.6996 57.6147 89.6996 56.0693 88.6748 56.0839H88.675Z" fill="#8B9A6C"/>
<path d="M71.9805 43.2013H75.0117M73.4961 44.7169L73.4961 41.6857L73.4961 44.7169Z" stroke="#8B9A6C" stroke-linecap="round" stroke-linejoin="round"/>
<path d="M90.1797 46.9907C90.5982 46.9907 90.9375 46.6514 90.9375 46.2329C90.9375 45.8144 90.5982 45.4751 90.1797 45.4751C89.7612 45.4751 89.4219 45.8144 89.4219 46.2329C89.4219 46.6514 89.7612 46.9907 90.1797 46.9907Z" fill="#8B9A6C"/>
<path d="M20.449 20.4668H23.4802M79.5768 32.5788L81.7202 30.4353L79.5768 32.5788ZM79.5768 30.4353L81.7202 32.5788L79.5768 30.4353ZM7.57999 26.5324L6.06437 25.0168L7.57999 26.5324ZM9.86108 25.0138V23.509V25.0138ZM6.81912 29.5606H5.31428H6.81912ZM3.91016 61.3918L6.05357 59.2484L3.91016 61.3918ZM3.91016 59.2484L6.05357 61.3918L3.91016 59.2484ZM21.9646 21.9824L21.9646 18.9512L21.9646 21.9824Z" stroke="#8B9A6C" stroke-linecap="round" stroke-linejoin="round"/>
<path d="M3.78906 40.1704C4.62612 40.1704 5.30469 39.4918 5.30469 38.6548C5.30469 37.8177 4.62612 37.1392 3.78906 37.1392C2.95201 37.1392 2.27344 37.8177 2.27344 38.6548C2.27344 39.4918 2.95201 40.1704 3.78906 40.1704Z" stroke="#8B9A6C" stroke-linecap="round" stroke-linejoin="round"/>
<path d="M90.1793 65.1724V74.2661C90.1793 75.5256 89.1654 76.5396 87.9059 76.5396H78.8122C78.1824 76.5396 77.6141 76.2862 77.2031 75.8752C90.1793 59.8677 77.2031 75.8751 90.1793 59.8677V69.6719V65.1724Z" fill="#B3BD8B"/>
<path d="M90.1797 65.1724V74.2661C90.1797 75.5256 89.1657 76.5396 87.9062 76.5396H78.8125C77.553 76.5396 76.5391 75.5256 76.5391 74.2661V65.1724V69.6719V59.8677H78.0547H88.6641H90.1797V69.6719V65.1724Z" stroke="#8B9A6C" stroke-linecap="round" stroke-linejoin="round"/>
</svg>
