<svg width="39" height="39" viewBox="0 0 39 39" fill="none" xmlns="http://www.w3.org/2000/svg">
<path d="M19.5666 9.84531L19.5666 9.84532L19.5695 9.84531L35.2066 9.80723C35.2068 9.80723 35.207 9.80723 35.2071 9.80723C37.0717 9.80751 38.6 11.5041 38.6 13.81V34.483C38.6 36.7944 37.0516 38.5238 35.2295 38.5238H3.92285C2.10072 38.5238 0.552344 36.7944 0.552344 34.483V13.81C0.552344 11.4985 2.10072 9.76914 3.92285 9.76914H3.92949H3.93047L19.5666 9.84531ZM34.2502 12.7493L35.0129 12.0519L33.9794 12.0541L19.5694 12.0846L19.5677 12.0846L5.57839 11.9932L4.57734 11.9866L5.29825 12.6812L18.6374 25.5334L18.6681 25.5692C18.6686 25.5698 18.6692 25.5704 18.6697 25.571C18.931 25.8808 19.2612 25.9328 19.4391 25.9328C19.603 25.9328 19.9324 25.8961 20.2062 25.5974L20.2064 25.5976L20.215 25.5875L20.2407 25.5575L20.2707 25.5318L20.2708 25.532L20.2803 25.5233L34.2502 12.7493ZM3.47716 14.0098L2.79922 13.3548V14.2975V34.483C2.79922 34.9964 2.93089 35.4194 3.12148 35.7256C3.21618 35.8777 3.32953 36.0074 3.45528 36.1029C3.57492 36.1939 3.73714 36.277 3.92285 36.277H35.2295C35.4152 36.277 35.5773 36.1939 35.6968 36.1033C35.8225 36.0081 35.9361 35.8789 36.0315 35.7275C36.2236 35.423 36.3596 35.0017 36.3683 34.4898H36.3684V34.483V14.7469V13.8384L35.6983 14.4518L21.835 27.1421L21.8245 27.1516L21.8148 27.1619C21.195 27.8158 20.3544 28.1873 19.4543 28.1873H19.4116C18.4961 28.1729 17.6354 27.7795 17.0247 27.101L17.0153 27.0906L17.0053 27.0809L3.47716 14.0098Z" fill="white" stroke="#7C906F" stroke-width="0.8"/>
</svg>
