<svg width="93" height="93" viewBox="0 0 93 93" fill="none" xmlns="http://www.w3.org/2000/svg">
<path fill-rule="evenodd" clip-rule="evenodd" d="M79.701 44.215C78.4678 42.8672 76.9393 41.7866 75.1589 41.0867C73.4531 40.4163 71.6787 40.1592 69.9317 40.2685L79.701 44.215ZM68.753 40.3979C66.9592 40.6803 65.2182 41.3451 63.6371 42.3396L82.7187 49.7569C82.3198 48.2987 81.6973 46.9286 80.8736 45.7061L68.753 40.3979ZM83.0497 51.2891L63.0428 42.7344C62.3804 43.1981 61.7504 43.7217 61.1608 44.3009L83.2243 53.0345C83.2002 52.4451 83.1415 51.8622 83.0497 51.2891ZM83.0827 55.815L61.5825 46.6217L80.661 54.2728L80.868 53.7731L82.1142 54.2728L82.4317 53.5064L61.0831 44.3779C59.623 45.8338 58.418 47.6344 57.6004 49.7144C56.9109 51.4686 56.5585 53.2649 56.5118 55.0206L79.1749 64.1586C79.5766 63.7164 79.9557 63.2464 80.3094 62.7504L56.9071 52.7436L80.6163 62.3035C81.1587 61.4831 81.633 60.5964 82.0264 59.6495L69.0494 54.1006L82.1268 59.4022C82.1322 59.3885 82.1376 59.3749 82.1429 59.3612C82.3356 58.8711 82.502 58.3776 82.6427 57.8827L58.9646 47.7582L82.7947 57.3075C82.9159 56.8101 83.0118 56.3121 83.0827 55.815ZM78.7794 64.5775L56.511 55.0556C56.4909 55.8807 56.5383 56.6966 56.65 57.4948L77.4031 65.8173C77.8829 65.4365 78.343 65.0226 78.7794 64.5775ZM76.8512 66.2345L56.6656 57.6032C56.8048 58.5473 57.0339 59.466 57.3477 60.3451L75.0063 67.3616C75.6435 67.0359 76.2607 66.6593 76.8512 66.2345ZM74.1227 67.7748L57.4604 60.6502C57.8723 61.7247 58.4121 62.7364 59.0698 63.658L71.4764 68.5915C72.3792 68.4138 73.2659 68.1393 74.1227 67.7748ZM70.1468 68.7817L59.5028 64.2305C60.8185 65.8724 62.5345 67.1831 64.5845 67.9889C66.3995 68.7022 68.292 68.9476 70.1468 68.7817ZM29.1537 11.2333L37.1367 14.3352C40.1239 16.4356 42.5979 19.4881 44.0793 23.2569C44.0847 23.2705 44.0901 23.2842 44.0953 23.2979L19.9323 12.966C20.462 12.6827 21.0129 12.4277 21.5838 12.2032C24.054 11.2323 26.6365 10.9381 29.1537 11.2333ZM17.276 14.7628C17.8126 14.3127 18.3814 13.897 18.9808 13.5193L44.2026 23.5785C45.4414 26.8906 45.75 30.3083 45.2572 33.4949L13.26 19.8131C13.4885 19.3715 13.7353 18.941 13.9999 18.523L35.4831 27.37L14.2857 18.0867C14.6057 17.6141 14.9494 17.1587 15.3159 16.7229L28.7324 22.1429L15.5145 16.491C15.906 16.0424 16.3223 15.6156 16.7623 15.2128L41.0908 24.9459L17.276 14.7628ZM12.1427 22.4936C12.2993 22.011 12.4754 21.537 12.6706 21.073L45.22 33.7255C44.2511 39.5146 40.6286 44.509 35.1314 46.6696C33.4638 47.3251 31.7451 47.6721 30.0298 47.7377L16.6897 42.0336C15.8434 41.1369 15.0703 40.1461 14.3874 39.0699L33.2905 46.6505L13.9757 38.3916C13.5167 37.6005 13.1052 36.7669 12.7473 35.8937L33.6138 44.3073L12.5082 35.2827C12.0679 34.1032 11.7455 32.9103 11.5352 31.7193L37.7325 42.2334L11.4192 30.9821C11.3363 30.3814 11.2816 29.782 11.2545 29.1858L24.977 34.7491L11.2429 28.8764C11.2259 28.3032 11.2344 27.7334 11.2676 27.1686L31.2712 35.1844L11.3054 26.6473C11.3514 26.1139 11.4196 25.5857 11.5093 25.0639L25.0533 30.4955L11.5698 24.7301C11.6599 24.2578 11.7678 23.7912 11.893 23.3314L41.6377 35.1054L12.1427 22.4936ZM17.8852 43.1951C21.1287 46.0833 25.2061 47.7275 29.3462 47.749L17.8852 43.1951Z" fill="#FBD466" fill-opacity="0.12"/>
<path fill-rule="evenodd" clip-rule="evenodd" d="M30.5561 9.87811C29.4918 10.0536 28.4341 10.3421 27.3963 10.75C25.2317 11.6008 23.3578 12.891 21.8221 14.4961L23.665 13.8304L21.7422 14.5802C21.1303 15.2291 20.573 15.9284 20.0736 16.6699L36.8731 10.1187C34.8122 9.62722 32.6745 9.52977 30.5628 9.87701L30.514 9.89465L30.5561 9.87811ZM38.5107 10.5976L19.9172 16.9063C19.0952 18.1726 18.4384 19.5568 17.9616 21.0207L39.5543 13.6942L17.724 21.8105C17.4763 22.7071 17.2945 23.6299 17.182 24.5707L38.6906 17.2728L17.1117 25.268C17.0463 26.0616 17.03 26.8662 17.0646 27.677L43.5209 18.7004L17.1306 28.6511C17.2961 30.4371 17.7099 32.2429 18.3917 34.0167L37.3274 27.5919L18.5734 34.4734C18.8592 35.1672 19.1789 35.836 19.5292 36.4782L27.6807 33.7124L19.6282 36.6574C20.3594 37.9657 21.2194 39.1615 22.1812 40.2317L25.1249 39.2615L22.231 40.287C22.6707 40.7726 23.1317 41.2321 23.6111 41.6642L42.9832 35.0913L24.1975 42.1715C24.9112 42.764 25.6614 43.2983 26.4407 43.7707L34.8718 40.9101L26.7078 43.9295C31.0259 46.4478 36.1928 47.084 40.9439 45.2164C45.8591 43.2845 49.2757 39.087 50.6367 34.0815L39.3203 37.9211L50.758 33.6103C51.1082 32.1736 51.2909 30.6751 51.2934 29.1488L40.0982 32.8387L51.2906 28.7881C51.2787 28.0904 51.2291 27.3874 51.1408 26.6824L47.6744 27.8585L51.1296 26.5949C51.0353 25.8692 50.8999 25.1415 50.7219 24.4151L40.5529 27.8654L50.6571 24.1579C50.4564 23.3832 50.207 22.6104 49.9077 21.8439L28.7852 29.0109L49.6407 21.1936C48.8386 19.33 47.7899 17.6522 46.5565 16.191L34.4368 20.3032L46.3096 15.9041C45.673 15.179 44.9902 14.5099 44.269 13.9006L28.6941 19.1851L43.8445 13.5524C42.2174 12.2566 40.4106 11.2575 38.5107 10.5976ZM64.5158 19.7348C64.2295 20.023 63.9815 20.3594 63.7847 20.74C63.5543 21.1855 63.4139 21.6537 63.3568 22.123L70.109 19.6536C69.8389 19.3915 69.5266 19.1643 69.1755 18.9827C68.7704 18.7733 68.3454 18.6411 67.917 18.5808L64.5158 19.7348ZM70.5115 20.1099L63.3279 22.5472C63.3183 23.1549 63.4459 23.754 63.6962 24.2984L71.2034 21.5815C71.0759 21.0508 70.8417 20.5486 70.5115 20.1099ZM71.3153 22.5492L64.0662 24.9386C64.4187 25.4353 64.8907 25.8564 65.4671 26.1545C67.4203 27.1645 69.8338 26.3778 70.8578 24.3973C71.1644 23.8045 71.3118 23.1718 71.3153 22.5492ZM70.2133 39.4202C63.575 37.1943 56.0773 41.0455 53.2411 48.2611C50.6576 54.8339 52.8075 61.9959 58.0312 65.4044L77.7243 58.0571C77.7442 58.0075 77.7641 57.9578 77.7837 57.908C78.2471 56.7289 78.5582 55.5311 78.7266 54.3393L58.5427 61.1875L78.7974 53.7584C78.8698 53.0546 78.8927 52.3543 78.868 51.6628L56.017 59.416L78.832 51.0272C78.7765 50.3166 78.6705 49.6172 78.5166 48.9347L73.0551 50.7877L78.4927 48.8306C78.3583 48.2545 78.1895 47.6908 77.9877 47.1428L53.8467 55.3338L77.7479 46.5361C77.5059 45.9629 77.2263 45.4092 76.9112 44.8796L54.8511 52.3646L76.5844 44.3582C76.2161 43.7997 75.8063 43.2714 75.357 42.7785L57.1222 48.9656L75.0299 42.4331C74.5277 41.9227 73.9807 41.4547 73.3916 41.0361L57.7657 46.3379L73.0433 40.7974C72.3489 40.3394 71.5996 39.948 70.7995 39.6335C70.741 39.6104 70.6823 39.5879 70.6236 39.5659L58.016 43.8436L70.2133 39.4202ZM77.1879 59.242L58.3798 65.6235C58.9601 65.9746 59.5759 66.2805 60.2252 66.5356C62.8097 67.5515 65.5519 67.6182 68.1175 66.9001L70.1026 66.1718C72.098 65.2589 73.9181 63.8537 75.3817 62.0452L71.0621 63.5108L75.4859 61.915C76.13 61.1009 76.7027 60.2073 77.1879 59.242ZM43.3647 80.4096C43.4523 80.464 43.5427 80.5154 43.6358 80.5635C45.589 81.5734 48.0025 80.7867 49.0266 78.8064C49.1066 78.6516 49.1757 78.4943 49.2343 78.335L43.3647 80.4096ZM49.2355 78.3317C49.9247 76.4534 49.1438 74.3223 47.3442 73.3918C47.2118 73.3233 47.0774 73.2632 46.9413 73.211L42.0265 75.0139C42.0014 75.0584 41.9771 75.1033 41.9534 75.1489C41.0172 76.9596 41.5666 79.1413 43.1605 80.2739L49.2355 78.3317ZM42.1576 74.7975L46.8901 73.1918C45.1546 72.5542 43.1817 73.2183 42.1576 74.7975ZM17.4925 63.8914C17.65 63.0885 17.9469 62.3245 18.3781 61.64L25.5638 59.0188C26.4542 59.2725 27.3132 59.7027 28.0851 60.2974L17.4925 63.8914ZM17.4681 66.5281C17.3638 65.9198 17.3354 65.3093 17.3812 64.7122L28.4805 60.6233C28.9426 61.0303 29.3667 61.5005 29.7395 62.0311C29.8025 62.1207 29.8634 62.2113 29.9221 62.3024L17.4681 66.5281ZM18.2787 68.8814C17.9898 68.3407 17.7701 67.7801 17.6182 67.2125L30.1128 62.6135C30.8258 63.8379 31.1731 65.1772 31.1744 66.4772L19.3945 70.4742C19.1828 70.2383 18.9824 69.9868 18.7951 69.7202C18.6331 69.4895 18.485 69.2537 18.3509 69.0135L25.9484 66.2792L18.2787 68.8814ZM22.0744 72.4124C21.3724 72.1091 20.7036 71.6916 20.0984 71.1666L31.148 67.1038C31.0739 67.9694 30.8435 68.8059 30.4634 69.566L22.0744 72.4124ZM23.0406 72.752C24.8926 73.2594 26.8732 73.0039 28.4815 71.874C29.155 71.4007 29.7065 70.8141 30.1311 70.1513L23.0406 72.752ZM25.0956 58.9024L18.8123 61.0342C19.1641 60.6009 19.5782 60.2109 20.0531 59.8773C21.5466 58.828 23.3611 58.5327 25.0956 58.9024Z" fill="#FFD895"/>
<path d="M40.9434 45.2164C49.6262 41.8035 53.6323 31.321 49.8911 21.8031C46.15 12.2852 36.0784 7.33617 27.3955 10.7491C18.7127 14.162 14.7066 24.6445 18.4478 34.1624C22.1889 43.6803 32.2605 48.6293 40.9434 45.2164Z" stroke="#839470" stroke-width="2" stroke-linecap="round" stroke-linejoin="round"/>
<path d="M43.4331 43.9784C37.4389 47.9744 22.0335 53.6342 13.8257 37.5302C6.65091 23.453 17.1696 12.3611 28.2661 10.3749" stroke="#839470" stroke-width="2" stroke-linecap="round" stroke-linejoin="round"/>
<path d="M28.4826 71.8746C31.5046 69.7515 32.0676 65.3447 29.7401 62.0317C27.4126 58.7188 23.0759 57.7543 20.0539 59.8774C17.0319 62.0005 16.4688 66.4073 18.7964 69.7203C21.1239 73.0332 25.4605 73.9978 28.4826 71.8746Z" stroke="#839470" stroke-width="2" stroke-linecap="round" stroke-linejoin="round"/>
<path d="M43.635 80.5637C45.5883 81.5737 48.0019 80.7871 49.0259 78.8067C50.0499 76.8263 49.2966 74.4022 47.3434 73.3921C45.3901 72.3821 42.9765 73.1688 41.9525 75.1491C40.9285 77.1295 41.6818 79.5537 43.635 80.5637Z" stroke="#839470" stroke-width="2" stroke-linecap="round" stroke-linejoin="round"/>
<path d="M65.4671 26.1543C67.4203 27.1643 69.8339 26.3776 70.8579 24.3973C71.882 22.4169 71.1287 19.9927 69.1754 18.9827C67.2221 17.9727 64.8085 18.7593 63.7845 20.7397C62.7605 22.7201 63.5138 25.1442 65.4671 26.1543Z" stroke="#839470" stroke-width="2" stroke-linecap="round" stroke-linejoin="round"/>
<path d="M60.2244 66.5356C53.4469 63.8716 50.3198 55.6898 53.2398 48.261C56.1598 40.8322 64.0211 36.9696 70.7986 39.6336C77.5761 42.2976 80.7032 50.4794 77.7832 57.9082C74.8632 65.3369 67.0019 69.1996 60.2244 66.5356Z" stroke="#839470" stroke-width="2" stroke-linecap="round" stroke-linejoin="round"/>
<path d="M39.6436 25.2589C39.4438 22.8413 38.0002 21.4177 35.6475 21.3428H31.6514C31.3864 21.3428 31.1323 21.448 30.945 21.6354C30.7576 21.8227 30.6523 22.0768 30.6523 22.3418V27.8364H29.6533C29.3884 27.8364 29.1343 27.9417 28.9469 28.129C28.7596 28.3164 28.6543 28.5705 28.6543 28.8354C28.6543 29.1004 28.7596 29.3545 28.9469 29.5419C29.1343 29.7292 29.3884 29.8345 29.6533 29.8345H30.6523V30.8335H29.6533C29.3884 30.8335 29.1343 30.9388 28.9469 31.1261C28.7596 31.3135 28.6543 31.5676 28.6543 31.8325C28.6543 32.0975 28.7596 32.3516 28.9469 32.5389C29.1343 32.7263 29.3884 32.8315 29.6533 32.8315H30.6523V34.3301C30.6523 34.595 30.7576 34.8491 30.945 35.0365C31.1323 35.2238 31.3864 35.3291 31.6514 35.3291C31.9163 35.3291 32.1704 35.2238 32.3578 35.0365C32.5451 34.8491 32.6504 34.595 32.6504 34.3301V29.8345H35.6824C38.0151 29.7595 39.5337 28.246 39.6436 25.8384V25.3389C39.6436 25.3139 39.6436 25.2839 39.6436 25.2589ZM35.6475 27.8364H32.6504V23.3408H35.6125C36.8962 23.3808 37.5206 24.0152 37.6455 25.3838V25.7934C37.5856 27.1271 36.9212 27.7965 35.6475 27.8364Z" fill="#839470"/>
<path d="M36.647 30.8335H34.1494C33.8845 30.8335 33.6304 30.9388 33.443 31.1261C33.2556 31.3135 33.1504 31.5676 33.1504 31.8325C33.1504 32.0975 33.2556 32.3516 33.443 32.5389C33.6304 32.7263 33.8845 32.8315 34.1494 32.8315H36.647C36.9119 32.8315 37.166 32.7263 37.3534 32.5389C37.5407 32.3516 37.646 32.0975 37.646 31.8325C37.646 31.5676 37.5407 31.3135 37.3534 31.1261C37.166 30.9388 36.9119 30.8335 36.647 30.8335Z" fill="#839470"/>
<path d="M69.3867 50.0747C69.2414 48.3164 68.1915 47.2811 66.4805 47.2266H63.5742C63.3815 47.2266 63.1967 47.3031 63.0605 47.4394C62.9242 47.5756 62.8477 47.7604 62.8477 47.9531V51.9492H62.1211C61.9284 51.9492 61.7436 52.0258 61.6073 52.162C61.4711 52.2983 61.3945 52.4831 61.3945 52.6758C61.3945 52.8685 61.4711 53.0533 61.6073 53.1895C61.7436 53.3258 61.9284 53.4023 62.1211 53.4023H62.8477V54.1289H62.1211C61.9284 54.1289 61.7436 54.2055 61.6073 54.3417C61.4711 54.478 61.3945 54.6628 61.3945 54.8555C61.3945 55.0482 61.4711 55.233 61.6073 55.3692C61.7436 55.5055 61.9284 55.582 62.1211 55.582H62.8477V56.6719C62.8477 56.8646 62.9242 57.0494 63.0605 57.1856C63.1967 57.3219 63.3815 57.3984 63.5742 57.3984C63.7669 57.3984 63.9517 57.3219 64.088 57.1856C64.2242 57.0494 64.3008 56.8646 64.3008 56.6719V53.4023H66.5059C68.2024 53.3479 69.3068 52.2471 69.3867 50.4961V50.1328C69.3867 50.1146 69.3867 50.0929 69.3867 50.0747ZM66.4805 51.9492H64.3008V48.6797H66.455C67.3887 48.7088 67.8428 49.1701 67.9336 50.1655V50.4634C67.89 51.4334 67.4068 51.9202 66.4805 51.9492Z" fill="#839470"/>
<path d="M67.207 54.1289H65.3906C65.1979 54.1289 65.0131 54.2055 64.8769 54.3417C64.7406 54.478 64.6641 54.6628 64.6641 54.8555C64.6641 55.0482 64.7406 55.233 64.8769 55.3692C65.0131 55.5055 65.1979 55.582 65.3906 55.582H67.207C67.3997 55.582 67.5845 55.5055 67.7208 55.3692C67.857 55.233 67.9336 55.0482 67.9336 54.8555C67.9336 54.6628 67.857 54.478 67.7208 54.3417C67.5845 54.2055 67.3997 54.1289 67.207 54.1289Z" fill="#839470"/>
</svg>
