<svg width="78" height="78" viewBox="0 0 78 78" fill="none" xmlns="http://www.w3.org/2000/svg">
<path d="M67.4981 47.7598V49.7631C67.4982 52.7981 66.5709 55.7607 64.8403 58.2539C63.1097 60.7472 60.6585 62.652 57.8151 63.7132L53.9592 65.1513L47.084 67.7168V63.1465L55.9626 59.4765C56.0037 59.4598 56.0448 59.4415 56.086 59.4247C58.1161 58.5564 59.8467 57.1111 61.063 55.2682C62.2792 53.4253 62.9276 51.2658 62.9277 49.0577V47.9121C62.9278 47.4119 62.8293 46.9167 62.638 46.4545C62.4466 45.9924 62.1661 45.5725 61.8124 45.2189C61.4587 44.8652 61.0388 44.5846 60.5767 44.3933C60.1146 44.2019 59.6193 44.1034 59.1191 44.1035H47.084V39.5332H59.2715C60.3518 39.5332 61.4216 39.7459 62.4197 40.1593C63.4178 40.5727 64.3247 41.1787 65.0886 41.9426C65.8526 42.7065 66.4585 43.6134 66.8719 44.6115C67.2853 45.6097 67.4981 46.6794 67.4981 47.7598Z" fill="#AFBE94"/>
<path d="M55.9626 59.4765C56.0037 59.4598 56.0448 59.4415 56.0859 59.4247C55.5155 61.3822 54.8048 63.296 53.9592 65.1513L47.084 67.7168V63.1465L55.9626 59.4765ZM57.649 44.1035H47.084V39.5332H57.0411C57.3251 41.0447 57.528 42.5703 57.649 44.1035Z" fill="#839470"/>
<path d="M41.8004 76.8574H24.3488C23.6991 76.8577 23.0568 76.7193 22.4648 76.4515C21.8728 76.1837 21.3447 75.7927 20.9159 75.3046C17.8673 71.8336 12.9974 65.1132 11.1916 55.377C9.94822 48.5989 10.4007 41.6185 12.5086 35.0576C12.6172 34.72 12.8302 34.4257 13.1168 34.217C13.4035 34.0083 13.749 33.8961 14.1036 33.8965H51.6175C52.1143 33.8967 52.5974 34.0587 52.9939 34.3579C53.3904 34.6571 53.6787 35.0773 53.8153 35.5549C55.7834 42.3588 56.0349 49.5445 54.5473 56.4694C53.0597 63.3943 49.8793 69.8427 45.2905 75.2382C44.8616 75.7457 44.3271 76.1536 43.7243 76.4332C43.1215 76.7129 42.4649 76.8577 41.8004 76.8574Z" fill="#CCD3B0"/>
<path d="M25.4862 75.3046C22.4376 71.8336 17.5677 65.1132 15.7619 55.377C14.5185 48.5989 14.971 41.6185 17.0789 35.0576C17.1875 34.72 17.4005 34.4257 17.6871 34.217C17.9738 34.0084 18.3193 33.8961 18.6739 33.8965H14.1036C13.749 33.8961 13.4035 34.0084 13.1168 34.217C12.8301 34.4257 12.6172 34.72 12.5086 35.0576C10.4007 41.6185 9.94823 48.5989 11.1916 55.377C12.9974 65.1132 17.8673 71.8336 20.9159 75.3046C21.3447 75.7927 21.8728 76.1837 22.4648 76.4515C23.0568 76.7193 23.6991 76.8577 24.3488 76.8574H28.9191C28.2694 76.8577 27.6271 76.7193 27.0351 76.4515C26.4431 76.1837 25.915 75.7927 25.4862 75.3046Z" fill="#839470"/>
<path d="M38.9551 31.6312C38.805 31.6312 38.6565 31.6016 38.5178 31.5442C38.3792 31.4868 38.2532 31.4026 38.1471 31.2965C38.041 31.1904 37.9569 31.0645 37.8995 30.9259C37.842 30.7872 37.8125 30.6387 37.8125 30.4886V29.1738C37.8141 27.74 38.3844 26.3653 39.3983 25.3514C40.4122 24.3375 41.7869 23.7672 43.2207 23.7656H47.9434C48.4484 23.7656 48.9328 23.565 49.2899 23.2079C49.647 22.8507 49.8477 22.3664 49.8477 21.8613C49.8477 21.3563 49.647 20.8719 49.2899 20.5148C48.9328 20.1577 48.4484 19.957 47.9434 19.957H45.0488C44.7458 19.957 44.4552 19.8367 44.2409 19.6224C44.0266 19.4081 43.9062 19.1175 43.9062 18.8145C43.9062 18.5114 44.0266 18.2208 44.2409 18.0065C44.4552 17.7923 44.7458 17.6719 45.0488 17.6719H47.9434C49.0545 17.6719 50.1201 18.1133 50.9058 18.8989C51.6914 19.6846 52.1328 20.7502 52.1328 21.8613C52.1328 22.9724 51.6914 24.038 50.9058 24.8237C50.1201 25.6094 49.0545 26.0508 47.9434 26.0508H43.2207C42.3927 26.0517 41.5989 26.3811 41.0134 26.9665C40.4279 27.552 40.0986 28.3458 40.0977 29.1738V30.4886C40.0977 30.6387 40.0681 30.7872 40.0107 30.9259C39.9533 31.0645 39.8691 31.1904 39.763 31.2965C39.6569 31.4026 39.531 31.4868 39.3923 31.5442C39.2537 31.6016 39.1051 31.6312 38.9551 31.6312Z" fill="url(#paint0_linear_136_367)"/>
<path d="M44.8965 19.957H43.6016C42.4905 19.957 41.4248 19.5156 40.6392 18.73C39.8535 17.9443 39.4121 16.8787 39.4121 15.7676C39.4121 14.6565 39.8535 13.5909 40.6392 12.8052C41.4248 12.0195 42.4905 11.5781 43.6016 11.5781H49.4668C49.7698 11.5781 50.0604 11.6985 50.2747 11.9128C50.489 12.1271 50.6094 12.4177 50.6094 12.7207C50.6094 13.0237 50.489 13.3144 50.2747 13.5286C50.0604 13.7429 49.7698 13.8633 49.4668 13.8633H43.6016C43.0965 13.8633 42.6121 14.0639 42.255 14.421C41.8979 14.7782 41.6973 15.2625 41.6973 15.7676C41.6973 16.2726 41.8979 16.757 42.255 17.1141C42.6121 17.4712 43.0965 17.6719 43.6016 17.6719H44.8965C45.1995 17.6719 45.4901 17.7923 45.7044 18.0065C45.9187 18.2208 46.0391 18.5114 46.0391 18.8145C46.0391 19.1175 45.9187 19.4081 45.7044 19.6224C45.4901 19.8367 45.1995 19.957 44.8965 19.957Z" fill="url(#paint1_linear_136_367)"/>
<path d="M54.1817 13.8633H44.839C44.536 13.8633 44.2453 13.7429 44.0311 13.5286C43.8168 13.3144 43.6964 13.0237 43.6964 12.7207C43.6964 12.4177 43.8168 12.1271 44.0311 11.9128C44.2453 11.6985 44.536 11.5781 44.839 11.5781H54.1817C54.6867 11.5781 55.1711 11.3775 55.5282 11.0204C55.8853 10.6632 56.0859 10.1789 56.0859 9.67383C56.0859 9.16878 55.8853 8.68441 55.5282 8.32729C55.1711 7.97016 54.6867 7.76953 54.1817 7.76953H44.2296C42.4726 7.76755 40.7882 7.06872 39.5458 5.82635C38.3035 4.58399 37.6046 2.89955 37.6027 1.14258C37.6027 0.839547 37.723 0.548928 37.9373 0.334653C38.1516 0.120378 38.4422 0 38.7452 0C39.0483 0 39.3389 0.120378 39.5532 0.334653C39.7674 0.548928 39.8878 0.839547 39.8878 1.14258C39.8891 2.29369 40.347 3.39729 41.1609 4.21125C41.9749 5.02521 43.0785 5.48307 44.2296 5.48437H54.1817C55.2928 5.48437 56.3584 5.92576 57.144 6.71144C57.9297 7.49711 58.3711 8.56272 58.3711 9.67383C58.3711 10.7849 57.9297 11.8505 57.144 12.6362C56.3584 13.4219 55.2928 13.8633 54.1817 13.8633ZM27.293 31.6312C27.1429 31.6312 26.9943 31.6016 26.8557 31.5442C26.7171 31.4868 26.5911 31.4026 26.485 31.2965C26.3789 31.1904 26.2948 31.0645 26.2374 30.9259C26.1799 30.7872 26.1504 30.6387 26.1504 30.4886V29.1738C26.1495 28.3458 25.8201 27.552 25.2346 26.9665C24.6492 26.3811 23.8553 26.0517 23.0273 26.0508H18.3047C17.1936 26.0508 16.128 25.6094 15.3423 24.8237C14.5566 24.038 14.1152 22.9724 14.1152 21.8613C14.1152 20.7502 14.5566 19.6846 15.3423 18.8989C16.128 18.1133 17.1936 17.6719 18.3047 17.6719H25.7695C26.0726 17.6719 26.3632 17.7923 26.5775 18.0065C26.7917 18.2208 26.9121 18.5114 26.9121 18.8145C26.9121 19.1175 26.7917 19.4081 26.5775 19.6224C26.3632 19.8367 26.0726 19.957 25.7695 19.957H18.3047C17.7996 19.957 17.3153 20.1577 16.9581 20.5148C16.601 20.8719 16.4004 21.3563 16.4004 21.8613C16.4004 22.3664 16.601 22.8507 16.9581 23.2079C17.3153 23.565 17.7996 23.7656 18.3047 23.7656H23.0273C24.4612 23.7672 25.8359 24.3375 26.8497 25.3514C27.8636 26.3653 28.4339 27.74 28.4355 29.1738V30.4886C28.4356 30.6387 28.406 30.7872 28.3486 30.9259C28.2912 31.0645 28.207 31.1904 28.1009 31.2965C27.9948 31.4026 27.8688 31.4868 27.7302 31.5442C27.5916 31.6016 27.443 31.6312 27.293 31.6312Z" fill="url(#paint2_linear_136_367)"/>
<path d="M32.5488 19.957H25.9219C25.6188 19.957 25.3282 19.8367 25.1139 19.6224C24.8997 19.4081 24.7793 19.1175 24.7793 18.8145C24.7793 18.5114 24.8997 18.2208 25.1139 18.0065C25.3282 17.7923 25.6188 17.6719 25.9219 17.6719H32.5488C33.0539 17.6719 33.5382 17.4712 33.8954 17.1141C34.2525 16.757 34.4531 16.2726 34.4531 15.7676C34.4531 15.2625 34.2525 14.7782 33.8954 14.421C33.5382 14.0639 33.0539 13.8633 32.5488 13.8633H16.7812C16.4782 13.8633 16.1876 13.7429 15.9733 13.5286C15.759 13.3144 15.6387 13.0237 15.6387 12.7207C15.6387 12.4177 15.759 12.1271 15.9733 11.9128C16.1876 11.6985 16.4782 11.5781 16.7812 11.5781H32.5488C33.6599 11.5781 34.7255 12.0195 35.5112 12.8052C36.2969 13.5909 36.7383 14.6565 36.7383 15.7676C36.7383 16.8787 36.2969 17.9443 35.5112 18.73C34.7255 19.5156 33.6599 19.957 32.5488 19.957Z" fill="url(#paint3_linear_136_367)"/>
<path d="M25.9794 13.8633H7.49609C6.38498 13.8633 5.31938 13.4219 4.5337 12.6362C3.74803 11.8505 3.30664 10.7849 3.30664 9.67383C3.30664 8.56272 3.74803 7.49711 4.5337 6.71144C5.31938 5.92576 6.38498 5.48438 7.49609 5.48438H22.0184C23.1696 5.48307 24.2732 5.02521 25.0871 4.21125C25.9011 3.39729 26.3589 2.29369 26.3602 1.14258C26.3602 0.839548 26.4806 0.548928 26.6949 0.334653C26.9092 0.120378 27.1998 0 27.5028 0C27.8058 0 28.0965 0.120378 28.3107 0.334653C28.525 0.548928 28.6454 0.839548 28.6454 1.14258C28.6434 2.89955 27.9446 4.58399 26.7022 5.82635C25.4599 7.06872 23.7754 7.76755 22.0184 7.76953H7.49609C6.99104 7.76953 6.50668 7.97016 6.14955 8.32729C5.79243 8.68441 5.5918 9.16878 5.5918 9.67383C5.5918 10.1789 5.79243 10.6632 6.14955 11.0204C6.50668 11.3775 6.99104 11.5781 7.49609 11.5781H25.9794C26.2824 11.5781 26.573 11.6985 26.7873 11.9128C27.0016 12.1271 27.122 12.4177 27.122 12.7207C27.122 13.0237 27.0016 13.3144 26.7873 13.5286C26.573 13.7429 26.2824 13.8633 25.9794 13.8633Z" fill="url(#paint4_linear_136_367)"/>
<defs>
<linearGradient id="paint0_linear_136_367" x1="44.9727" y1="17.6719" x2="44.9727" y2="31.6312" gradientUnits="userSpaceOnUse">
<stop stop-color="#F5BE6D"/>
<stop offset="1" stop-color="#FFDE80"/>
</linearGradient>
<linearGradient id="paint1_linear_136_367" x1="45.0107" y1="11.5781" x2="45.0107" y2="19.957" gradientUnits="userSpaceOnUse">
<stop stop-color="#F5BE6D"/>
<stop offset="1" stop-color="#FFDE80"/>
</linearGradient>
<linearGradient id="paint2_linear_136_367" x1="36.2432" y1="0" x2="36.2432" y2="31.6312" gradientUnits="userSpaceOnUse">
<stop stop-color="#F5BE6D"/>
<stop offset="1" stop-color="#FFDE80"/>
</linearGradient>
<linearGradient id="paint3_linear_136_367" x1="26.1885" y1="11.5781" x2="26.1885" y2="19.957" gradientUnits="userSpaceOnUse">
<stop stop-color="#F5BE6D"/>
<stop offset="1" stop-color="#FFDE80"/>
</linearGradient>
<linearGradient id="paint4_linear_136_367" x1="15.976" y1="0" x2="15.976" y2="13.8633" gradientUnits="userSpaceOnUse">
<stop stop-color="#F5BE6D"/>
<stop offset="1" stop-color="#FFDE80"/>
</linearGradient>
</defs>
</svg>
