<svg width="40" height="40" viewBox="0 0 40 40" fill="none" xmlns="http://www.w3.org/2000/svg">
<g clip-path="url(#clip0_187_379)">
<path d="M39.5 19C39.5 29.2173 31.2173 37.5 21 37.5C18.9624 37.5 16.7081 37.36 14.2994 37.2105C13.5005 37.1609 12.6846 37.1102 11.854 37.0633C8.8355 36.8927 5.64121 36.7726 2.43227 36.9414C2.91621 35.9934 3.19419 34.8791 3.34002 33.6899C3.53324 32.1143 3.49966 30.3614 3.37373 28.6002C3.26791 27.1201 3.09534 25.6165 2.93214 24.1947C2.90112 23.9244 2.87043 23.6571 2.84061 23.3935C2.65272 21.7323 2.50005 20.2247 2.50005 19C2.50005 8.78273 10.7828 0.5 21 0.5C31.2173 0.5 39.5 8.78273 39.5 19Z" stroke="white"/>
<path d="M35 19C35 26.7444 28.8069 33 21.1948 33C19.6281 33 17.8993 32.8913 16.0283 32.7736C15.4023 32.7342 14.7604 32.6939 14.1033 32.6562C12.0414 32.5382 9.85828 32.4495 7.64664 32.5196C7.8394 31.9298 7.96303 31.3038 8.03982 30.6694C8.19708 29.3702 8.16817 27.9428 8.06895 26.5368C7.98551 25.3545 7.84934 24.1527 7.72218 23.0304C7.6981 22.8178 7.67434 22.6081 7.65132 22.4019C7.50443 21.0863 7.38965 19.9284 7.38965 19C7.38965 11.2556 13.5827 5 21.1948 5C28.8069 5 35 11.2556 35 19Z" stroke="white" stroke-width="2"/>
<path fill-rule="evenodd" clip-rule="evenodd" d="M14.7964 16.6667L14.7778 16.613C14.3578 15.4098 14 13.7656 14 12.7778C14 12.35 14.35 12 14.7778 12H17.1111C17.5237 12 17.9193 12.1639 18.2111 12.4556C18.5028 12.7473 18.6667 13.143 18.6667 13.5556V15.1111C18.6667 15.5237 18.5028 15.9193 18.2111 16.2111C17.9193 16.5028 17.5237 16.6667 17.1111 16.6667H16.4601C17.0881 18.2136 18.0199 19.619 19.2005 20.7995C20.381 21.9801 21.7864 22.9119 23.3333 23.5399V22.8889C23.3333 22.4763 23.4972 22.0807 23.7889 21.7889C24.0807 21.4972 24.4763 21.3333 24.8889 21.3333H26.4444C26.857 21.3333 27.2527 21.4972 27.5444 21.7889C27.8361 22.0807 28 22.4763 28 22.8889V25.2222C28 25.5722 27.5722 26 27.2222 26C25.8806 26 24.5467 25.6453 23.3333 25.2222C19.3558 23.7973 16.2027 20.6442 14.7964 16.6667Z" fill="white"/>
</g>
<defs>
<clipPath id="clip0_187_379">
<rect width="40" height="40" fill="white"/>
</clipPath>
</defs>
</svg>
