<svg width="40" height="40" viewBox="0 0 40 40" fill="none" xmlns="http://www.w3.org/2000/svg">
<g clip-path="url(#clip0_136_240)">
<path d="M39.55 19C39.55 29.2449 31.2449 37.55 21 37.55C18.9607 37.55 16.7041 37.4099 14.2949 37.2603C13.4963 37.2107 12.681 37.1601 11.8512 37.1132C8.80572 36.9411 5.58304 36.8205 2.3476 36.996C2.85267 36.0388 3.14094 34.9026 3.29039 33.6838C3.48304 32.1128 3.44969 30.3637 3.32386 28.6037C3.21812 27.1248 3.04569 25.6225 2.88249 24.2007C2.85147 23.9303 2.82077 23.6629 2.79093 23.3991C2.60307 21.7383 2.45005 20.228 2.45005 19C2.45005 8.75512 10.7552 0.45 21 0.45C31.2449 0.45 39.55 8.75512 39.55 19Z" stroke="#E7C08D" stroke-width="0.9"/>
<path d="M35.25 19C35.25 26.8793 28.9481 33.25 21.1948 33.25C19.6196 33.25 17.8795 33.1406 16.0061 33.0227C15.3815 32.9835 14.742 32.9432 14.089 32.9058C11.9146 32.7813 9.61261 32.6901 7.28785 32.7825C7.54422 32.1186 7.70078 31.39 7.79163 30.6394C7.9461 29.3632 7.91833 27.9539 7.81957 26.5544C7.73654 25.3778 7.60108 24.1822 7.47391 23.0598C7.44979 22.8469 7.42597 22.6367 7.40286 22.4297C7.25617 21.1158 7.13965 19.9444 7.13965 19C7.13965 11.1207 13.4416 4.75 21.1948 4.75C28.9481 4.75 35.25 11.1207 35.25 19Z" stroke="#E7C08D" stroke-width="1.5"/>
<path fill-rule="evenodd" clip-rule="evenodd" d="M14.7964 16.6667L14.7778 16.613C14.3578 15.4098 14 13.7656 14 12.7778C14 12.35 14.35 12 14.7778 12H17.1111C17.5237 12 17.9193 12.1639 18.2111 12.4556C18.5028 12.7473 18.6667 13.143 18.6667 13.5556V15.1111C18.6667 15.5237 18.5028 15.9193 18.2111 16.2111C17.9193 16.5028 17.5237 16.6667 17.1111 16.6667H16.4601C17.0881 18.2136 18.0199 19.619 19.2005 20.7995C20.381 21.9801 21.7864 22.9119 23.3333 23.5399V22.8889C23.3333 22.4763 23.4972 22.0807 23.7889 21.7889C24.0807 21.4972 24.4763 21.3333 24.8889 21.3333H26.4444C26.857 21.3333 27.2527 21.4972 27.5444 21.7889C27.8361 22.0807 28 22.4763 28 22.8889V25.2222C28 25.5722 27.5722 26 27.2222 26C25.8806 26 24.5467 25.6453 23.3333 25.2222C19.3558 23.7973 16.2027 20.6442 14.7964 16.6667Z" fill="#839470"/>
</g>
<defs>
<clipPath id="clip0_136_240">
<rect width="40" height="40" fill="white"/>
</clipPath>
</defs>
</svg>
